<svg width="359" height="357" viewBox="0 0 359 357" fill="none" xmlns="http://www.w3.org/2000/svg">
<circle cx="180.5" cy="178.5" r="119.5" fill="#FEB344"/>
<path d="M26.8561 276.083L54.8134 226.229L84.0093 275.368L26.8561 276.083Z" fill="#FEB344"/>
<path d="M91.5789 335.658L91.5789 278.5L141.079 307.079L91.5789 335.658Z" fill="#FEB344"/>
<path d="M181 357L152.421 307.5L209.579 307.5L181 357Z" fill="#FEB344"/>
<path d="M-1.44248e-06 186L49.5 157.421L49.5 214.579L-1.44248e-06 186Z" fill="#FEB344"/>
<path d="M20.5 94.5788L77.6577 94.5788L49.0788 144.079L20.5 94.5788Z" fill="#FEB344"/>
<path d="M86.5788 25.5L136.079 54.0788L86.5788 82.6577L86.5788 25.5Z" fill="#FEB344"/>
<path d="M181 0L209.579 49.5H152.421L181 0Z" fill="#FEB344"/>
<path d="M271.579 25.5L271.579 82.6577L222.079 54.0788L271.579 25.5Z" fill="#FEB344"/>
<path d="M334.658 87.5788L306.079 137.079L277.5 87.5788L334.658 87.5788Z" fill="#FEB344"/>
<path d="M359 186L309.5 214.579L309.5 157.421L359 186Z" fill="#FEB344"/>
<path d="M333.579 273.5L276.421 273.5L305 224L333.579 273.5Z" fill="#FEB344"/>
<path d="M271.579 333.658L222.079 305.079L271.579 276.5L271.579 333.658Z" fill="#FEB344"/>
</svg>
